<svg width="33" height="34" viewBox="0 0 33 34" fill="none" xmlns="http://www.w3.org/2000/svg">
<path d="M14.8593 15.7367L14.5477 17.6961C12.0626 17.4305 10.6979 17.8615 9.17673 18.462C8.06491 18.9332 6.72038 19.2378 5.45627 19.0368C3.30728 18.695 1.95834 16.99 2.31016 14.7778C2.67204 12.5024 4.48338 11.3 6.63237 11.6417C7.89649 11.8428 9.08018 12.5495 9.99095 13.3424C11.2508 14.3852 12.4144 15.2183 14.8593 15.7367ZM17.5053 14.9911L15.5718 15.3316C15.0689 12.7891 14.3448 11.637 13.3148 10.3715C12.4974 9.39909 11.7001 8.30022 11.4487 7.02895C11.2144 5.24198 12.3348 3.0872 14.478 2.6504C16.864 2.31702 18.539 4.00911 18.8264 5.86934C19.0146 7.13056 18.624 8.36451 18.1169 9.51516C17.4864 11.035 17.202 12.4155 17.5053 14.9911ZM15.0993 18.3023L16.8318 19.2258C15.7445 21.5803 15.5865 22.9809 15.7145 24.6213C15.8395 25.8725 15.8281 27.1667 15.2578 28.3073C14.4075 29.9866 12.2902 31.0756 10.1254 30.0184C8.22343 28.9383 7.81679 26.6055 8.60389 24.9161C9.23733 23.7856 10.3362 22.9883 11.415 22.3174C12.7767 21.4971 13.8325 20.5633 15.0993 18.3023ZM18.9706 16.7794L18.1373 15.0916C20.348 13.8231 21.171 12.7227 22.0875 11.4427C22.7209 10.3122 23.5439 9.21179 24.8023 8.63426C26.3536 7.84412 28.7023 8.15285 29.8113 10.1438C30.8371 12.251 29.8432 14.4259 28.1022 15.1859C26.897 15.8367 25.6128 15.762 24.3185 15.7506C22.7283 15.5625 21.3407 15.7306 18.9706 16.7794ZM17.4638 19.3264L18.7796 17.9803C20.7074 19.7126 21.9744 20.3029 23.5345 20.6807C24.7785 21.0081 26.0225 21.3356 26.9663 22.3281C28.3856 23.5907 28.6558 25.9666 27.0269 27.6517C25.3549 29.2003 23.0264 28.7652 21.7967 27.5327C20.7796 26.5933 20.3385 25.2919 20.0871 24.0206C19.6029 22.5827 19.1719 21.2181 17.4638 19.3264Z" fill="#ACCAEC"/>
</svg>
