<svg width="70" height="48" viewBox="0 0 70 48" fill="none" xmlns="http://www.w3.org/2000/svg">
<path d="M28.912 33.792H12.28V27.48H26.272V25.752H12.232V23.592H28.672V28.152C28.672 29.16 28.24 29.592 27.232 29.592H14.68V31.632H28.912V33.792ZM23.752 22.08H21.232L18.52 15.024C18.376 14.64 18.328 14.52 17.992 14.52H16.336C16 14.52 15.952 14.664 15.808 15.024L12.952 22.08H10.432L13.456 14.52H10.624V12.36H23.968V14.52H20.896L23.752 22.08ZM28.672 22.56H26.272V12.096H28.672V15.696H31.504V17.904H28.672V22.56ZM50.662 33.792H34.03V27.48H48.022V25.752H33.982V23.592H50.422V28.152C50.422 29.16 49.99 29.592 48.982 29.592H36.43V31.632H50.662V33.792ZM45.502 22.08H42.982L40.27 15.024C40.126 14.64 40.078 14.52 39.742 14.52H38.086C37.75 14.52 37.702 14.664 37.558 15.024L34.702 22.08H32.182L35.206 14.52H32.374V12.36H45.718V14.52H42.646L45.502 22.08ZM50.422 22.56H48.022V12.096H50.422V15.696H53.254V17.904H50.422V22.56Z" fill="white"/>
</svg>
