<svg width="262" height="391" viewBox="0 0 262 391" fill="none" xmlns="http://www.w3.org/2000/svg">
<g filter="url(#filter0_f_275_1359)">
<mask id="path-1-inside-1_275_1359" fill="white">
<path fill-rule="evenodd" clip-rule="evenodd" d="M81.7699 239.441C162.643 239.441 228.203 173.881 228.203 93.008C228.203 58.1538 216.026 26.1436 195.693 1C235.263 27.215 261.356 72.1412 261.356 123.162C261.356 204.034 195.796 269.595 114.923 269.595C68.9051 269.595 27.8447 248.367 1 215.17C24.1522 230.508 51.9178 239.441 81.7699 239.441Z"/>
</mask>
<path fill-rule="evenodd" clip-rule="evenodd" d="M81.7699 239.441C162.643 239.441 228.203 173.881 228.203 93.008C228.203 58.1538 216.026 26.1436 195.693 1C235.263 27.215 261.356 72.1412 261.356 123.162C261.356 204.034 195.796 269.595 114.923 269.595C68.9051 269.595 27.8447 248.367 1 215.17C24.1522 230.508 51.9178 239.441 81.7699 239.441Z" fill="url(#paint0_linear_275_1359)"/>
<path fill-rule="evenodd" clip-rule="evenodd" d="M81.7699 239.441C162.643 239.441 228.203 173.881 228.203 93.008C228.203 58.1538 216.026 26.1436 195.693 1C235.263 27.215 261.356 72.1412 261.356 123.162C261.356 204.034 195.796 269.595 114.923 269.595C68.9051 269.595 27.8447 248.367 1 215.17C24.1522 230.508 51.9178 239.441 81.7699 239.441Z" fill="white" fill-opacity="0.3"/>
<path d="M195.693 1L197.35 -1.50095L193.361 2.88635L195.693 1ZM1 215.17L2.65688 212.669L-1.33274 217.056L1 215.17ZM225.203 93.008C225.203 172.224 160.986 236.441 81.7699 236.441V242.441C164.299 242.441 231.203 175.538 231.203 93.008H225.203ZM193.361 2.88635C213.277 27.5155 225.203 58.865 225.203 93.008H231.203C231.203 57.4425 218.774 24.7717 198.026 -0.88635L193.361 2.88635ZM194.036 3.50095C232.803 29.1839 258.356 73.1894 258.356 123.162H264.356C264.356 71.093 237.723 25.2461 197.35 -1.50095L194.036 3.50095ZM258.356 123.162C258.356 202.378 194.139 266.595 114.923 266.595V272.595C197.453 272.595 264.356 205.691 264.356 123.162H258.356ZM114.923 266.595C69.8492 266.595 29.6323 245.807 3.33274 213.283L-1.33274 217.056C26.057 250.928 67.961 272.595 114.923 272.595V266.595ZM81.7699 236.441C52.5251 236.441 25.3329 227.692 2.65688 212.669L-0.656881 217.671C22.9714 233.325 51.3106 242.441 81.7699 242.441V236.441Z" fill="#ACCAEC" mask="url(#path-1-inside-1_275_1359)"/>
</g>
<path d="M146.891 179.537C147.89 165.538 144.293 151.17 158.181 152.037C172.069 152.905 164.181 179.537 164.181 179.537C169.681 179.537 174.681 183.037 174.681 183.037C174.681 183.037 179.181 156.037 191.181 162.037C203.181 168.038 196.036 182.5 188.036 190.5C189.612 198.502 188.823 210.828 177.182 213.236C173.036 233.538 163.036 238 149.182 233.538C135.327 229.075 123.036 210.538 145.036 202.127C136.518 193.471 142.641 183.788 146.891 179.537Z" fill="white"/>
<path d="M145.036 202.127C148.209 205.351 152.3 208.432 159.682 211.038C167.095 213.654 172.82 214.139 177.182 213.236M145.036 202.127C136.518 193.471 142.641 183.788 146.891 179.537C147.89 165.538 144.293 151.17 158.181 152.037C172.069 152.905 164.181 179.537 164.181 179.537C169.681 179.537 174.681 183.037 174.681 183.037C174.681 183.037 179.181 156.037 191.181 162.037C203.181 168.038 196.036 182.5 188.036 190.5C189.612 198.502 188.823 210.828 177.182 213.236M145.036 202.127C123.036 210.538 135.327 229.075 149.182 233.538C163.036 238 173.036 233.538 177.182 213.236" stroke="#82AFE3" stroke-width="3"/>
<circle cx="154.5" cy="189.5" r="1.5" fill="#5895DA"/>
<circle cx="170.5" cy="195.5" r="1.5" fill="#5895DA"/>
<path d="M158.5 196L161 195.5L162.5 197.5" stroke="#2F7AD0"/>
<path d="M157.335 213.672L156.025 212.965C156.83 211.272 156.864 210.2 156.816 208.974C156.758 208.07 156.877 207.043 157.333 206.198C158.108 204.762 159.649 204.23 161.128 205.028C162.648 205.849 163.05 207.43 162.275 208.866C161.819 209.711 161.025 210.373 160.237 210.821C159.187 211.454 158.308 212.07 157.335 213.672ZM157.206 215.73L157.445 214.277C159.369 214.552 160.364 214.325 161.515 213.91C162.406 213.573 163.382 213.282 164.344 213.419C165.667 213.697 166.914 215.025 166.691 216.65C166.335 218.421 164.722 219.187 163.334 218.929C162.395 218.749 161.618 218.166 160.93 217.522C160.01 216.698 159.104 216.154 157.206 215.73ZM155.459 213.205L154.376 214.202C152.979 212.848 152.027 212.389 150.834 212.073C149.918 211.851 149.005 211.521 148.339 210.835C147.361 209.816 147.116 208.047 148.402 206.777C149.638 205.699 151.39 205.991 152.39 206.967C153.033 207.696 153.325 208.671 153.532 209.601C153.775 210.769 154.173 211.748 155.459 213.205ZM155.576 216.323L156.978 216.152C157.327 218.032 157.902 218.887 158.58 219.854C159.223 220.582 159.797 221.438 159.894 222.472C160.068 223.766 159.267 225.352 157.583 225.642C155.837 225.846 154.544 224.602 154.438 223.182C154.277 222.167 154.648 221.277 154.977 220.364C155.505 219.285 155.731 218.261 155.576 216.323ZM154.148 214.625L154.774 215.89C153.069 216.825 152.337 217.575 151.683 218.585C151.142 219.384 150.602 220.183 149.665 220.605C148.419 221.296 146.671 220.898 145.882 219.327C145.201 217.759 146.087 216.219 147.264 215.655C148.182 215.168 149.212 215.179 150.174 215.316C151.312 215.331 152.385 215.364 154.148 214.625Z" fill="#F1F4BC"/>
<path d="M170.548 217.206C169.048 217.039 165.548 216.206 165.048 219.706C164.548 223.206 168.048 223.039 170.048 223.206" stroke="#82AFE3" stroke-linecap="round"/>
<path d="M147.296 207.106C148.119 208.513 150.428 211.618 147.578 213.52C144.727 215.421 143.296 211.914 142.248 210.015" stroke="#82AFE3" stroke-linecap="round"/>
<path d="M50.9998 372L49.9998 253" stroke="#ACCAEC"/>
<path d="M34 299V243" stroke="#ACCAEC" stroke-width="2"/>
<path d="M18 297L18 280L18 263L18 229" stroke="#ACCAEC"/>
<path d="M3.31892 217.005C3.32036 216.452 2.87382 216.003 2.32154 216.002C1.76926 216 1.32037 216.447 1.31893 216.999L3.31892 217.005ZM2.99975 339.003L3.31892 217.005L1.31893 216.999L0.999759 338.997L2.99975 339.003Z" fill="#ACCAEC"/>
<path d="M65 316V260" stroke="#ACCAEC" stroke-width="2"/>
<path d="M81 333L81 265" stroke="#ACCAEC"/>
<path d="M96.9998 345L96.9998 268" stroke="#ACCAEC" stroke-width="2"/>
<path d="M113 337L113 269" stroke="#ACCAEC"/>
<path d="M146 366L145 266" stroke="#ACCAEC"/>
<path d="M161 317V261" stroke="#ACCAEC" stroke-width="2"/>
<path d="M177 323V255" stroke="#ACCAEC"/>
<path d="M194 334L193 246" stroke="#ACCAEC" stroke-width="2"/>
<path d="M209 301V233" stroke="#ACCAEC"/>
<path d="M225 274V218" stroke="#ACCAEC" stroke-width="2"/>
<path d="M241 349.5L241 197" stroke="#ACCAEC"/>
<path d="M257 211V155" stroke="#ACCAEC" stroke-width="2"/>
<path d="M129 324V268" stroke="#ACCAEC" stroke-width="2"/>
<path d="M51.02 372.48H50.4C50.36 371.7 50.16 371.3 49.9 370.86C49.7 370.54 49.54 370.14 49.54 369.74C49.54 369.06 50 368.56 50.7 368.56C51.42 368.56 51.88 369.06 51.88 369.74C51.88 370.14 51.72 370.54 51.52 370.86C51.26 371.3 51.06 371.7 51.02 372.48ZM51.38 373.26L51.18 372.68C51.94 372.4 52.26 372.12 52.6 371.74C52.86 371.44 53.16 371.14 53.54 371C54.08 370.84 54.8 371.08 55.04 371.72C55.26 372.44 54.82 373.04 54.26 373.22C53.88 373.34 53.48 373.28 53.1 373.18C52.6 373.06 52.16 373.04 51.38 373.26ZM50.24 372.68L50.04 373.26C49.26 373.04 48.82 373.06 48.32 373.18C47.94 373.28 47.54 373.34 47.16 373.22C46.6 373.04 46.16 372.44 46.38 371.72C46.62 371.08 47.32 370.84 47.88 371C48.26 371.14 48.56 371.44 48.82 371.74C49.14 372.12 49.48 372.4 50.24 372.68ZM50.9 373.8L51.38 373.46C51.88 374.08 52.26 374.28 52.7 374.5C53.08 374.64 53.46 374.84 53.7 375.2C54.02 375.64 54.04 376.38 53.48 376.82C52.88 377.24 52.16 377.04 51.84 376.54C51.58 376.2 51.54 375.8 51.48 375.4C51.46 374.9 51.34 374.48 50.9 373.8ZM50.04 373.46L50.52 373.8C50.08 374.48 49.96 374.9 49.92 375.4C49.88 375.8 49.84 376.2 49.58 376.54C49.26 377.04 48.54 377.24 47.94 376.82C47.38 376.38 47.4 375.64 47.72 375.2C47.96 374.84 48.34 374.64 48.72 374.5C49.14 374.28 49.54 374.08 50.04 373.46Z" fill="#5895DA"/>
<path d="M241.02 353.48H240.4C240.36 352.7 240.16 352.3 239.9 351.86C239.7 351.54 239.54 351.14 239.54 350.74C239.54 350.06 240 349.56 240.7 349.56C241.42 349.56 241.88 350.06 241.88 350.74C241.88 351.14 241.72 351.54 241.52 351.86C241.26 352.3 241.06 352.7 241.02 353.48ZM241.38 354.26L241.18 353.68C241.94 353.4 242.26 353.12 242.6 352.74C242.86 352.44 243.16 352.14 243.54 352C244.08 351.84 244.8 352.08 245.04 352.72C245.26 353.44 244.82 354.04 244.26 354.22C243.88 354.34 243.48 354.28 243.1 354.18C242.6 354.06 242.16 354.04 241.38 354.26ZM240.24 353.68L240.04 354.26C239.26 354.04 238.82 354.06 238.32 354.18C237.94 354.28 237.54 354.34 237.16 354.22C236.6 354.04 236.16 353.44 236.38 352.72C236.62 352.08 237.32 351.84 237.88 352C238.26 352.14 238.56 352.44 238.82 352.74C239.14 353.12 239.48 353.4 240.24 353.68ZM240.9 354.8L241.38 354.46C241.88 355.08 242.26 355.28 242.7 355.5C243.08 355.64 243.46 355.84 243.7 356.2C244.02 356.64 244.04 357.38 243.48 357.82C242.88 358.24 242.16 358.04 241.84 357.54C241.58 357.2 241.54 356.8 241.48 356.4C241.46 355.9 241.34 355.48 240.9 354.8ZM240.04 354.46L240.52 354.8C240.08 355.48 239.96 355.9 239.92 356.4C239.88 356.8 239.84 357.2 239.58 357.54C239.26 358.04 238.54 358.24 237.94 357.82C237.38 357.38 237.4 356.64 237.72 356.2C237.96 355.84 238.34 355.64 238.72 355.5C239.14 355.28 239.54 355.08 240.04 354.46Z" fill="#5895DA"/>
<path d="M113.02 335.48H112.4C112.36 334.7 112.16 334.3 111.9 333.86C111.7 333.54 111.54 333.14 111.54 332.74C111.54 332.06 112 331.56 112.7 331.56C113.42 331.56 113.88 332.06 113.88 332.74C113.88 333.14 113.72 333.54 113.52 333.86C113.26 334.3 113.06 334.7 113.02 335.48ZM113.38 336.26L113.18 335.68C113.94 335.4 114.26 335.12 114.6 334.74C114.86 334.44 115.16 334.14 115.54 334C116.08 333.84 116.8 334.08 117.04 334.72C117.26 335.44 116.82 336.04 116.26 336.22C115.88 336.34 115.48 336.28 115.1 336.18C114.6 336.06 114.16 336.04 113.38 336.26ZM112.24 335.68L112.04 336.26C111.26 336.04 110.82 336.06 110.32 336.18C109.94 336.28 109.54 336.34 109.16 336.22C108.6 336.04 108.16 335.44 108.38 334.72C108.62 334.08 109.32 333.84 109.88 334C110.26 334.14 110.56 334.44 110.82 334.74C111.14 335.12 111.48 335.4 112.24 335.68ZM112.9 336.8L113.38 336.46C113.88 337.08 114.26 337.28 114.7 337.5C115.08 337.64 115.46 337.84 115.7 338.2C116.02 338.64 116.04 339.38 115.48 339.82C114.88 340.24 114.16 340.04 113.84 339.54C113.58 339.2 113.54 338.8 113.48 338.4C113.46 337.9 113.34 337.48 112.9 336.8ZM112.04 336.46L112.52 336.8C112.08 337.48 111.96 337.9 111.92 338.4C111.88 338.8 111.84 339.2 111.58 339.54C111.26 340.04 110.54 340.24 109.94 339.82C109.38 339.38 109.4 338.64 109.72 338.2C109.96 337.84 110.34 337.64 110.72 337.5C111.14 337.28 111.54 337.08 112.04 336.46Z" fill="#D5E4F6"/>
<path d="M177.02 326.48H176.4C176.36 325.7 176.16 325.3 175.9 324.86C175.7 324.54 175.54 324.14 175.54 323.74C175.54 323.06 176 322.56 176.7 322.56C177.42 322.56 177.88 323.06 177.88 323.74C177.88 324.14 177.72 324.54 177.52 324.86C177.26 325.3 177.06 325.7 177.02 326.48ZM177.38 327.26L177.18 326.68C177.94 326.4 178.26 326.12 178.6 325.74C178.86 325.44 179.16 325.14 179.54 325C180.08 324.84 180.8 325.08 181.04 325.72C181.26 326.44 180.82 327.04 180.26 327.22C179.88 327.34 179.48 327.28 179.1 327.18C178.6 327.06 178.16 327.04 177.38 327.26ZM176.24 326.68L176.04 327.26C175.26 327.04 174.82 327.06 174.32 327.18C173.94 327.28 173.54 327.34 173.16 327.22C172.6 327.04 172.16 326.44 172.38 325.72C172.62 325.08 173.32 324.84 173.88 325C174.26 325.14 174.56 325.44 174.82 325.74C175.14 326.12 175.48 326.4 176.24 326.68ZM176.9 327.8L177.38 327.46C177.88 328.08 178.26 328.28 178.7 328.5C179.08 328.64 179.46 328.84 179.7 329.2C180.02 329.64 180.04 330.38 179.48 330.82C178.88 331.24 178.16 331.04 177.84 330.54C177.58 330.2 177.54 329.8 177.48 329.4C177.46 328.9 177.34 328.48 176.9 327.8ZM176.04 327.46L176.52 327.8C176.08 328.48 175.96 328.9 175.92 329.4C175.88 329.8 175.84 330.2 175.58 330.54C175.26 331.04 174.54 331.24 173.94 330.82C173.38 330.38 173.4 329.64 173.72 329.2C173.96 328.84 174.34 328.64 174.72 328.5C175.14 328.28 175.54 328.08 176.04 327.46Z" fill="#F1F4BC"/>
<path d="M209.02 303.48H208.4C208.36 302.7 208.16 302.3 207.9 301.86C207.7 301.54 207.54 301.14 207.54 300.74C207.54 300.06 208 299.56 208.7 299.56C209.42 299.56 209.88 300.06 209.88 300.74C209.88 301.14 209.72 301.54 209.52 301.86C209.26 302.3 209.06 302.7 209.02 303.48ZM209.38 304.26L209.18 303.68C209.94 303.4 210.26 303.12 210.6 302.74C210.86 302.44 211.16 302.14 211.54 302C212.08 301.84 212.8 302.08 213.04 302.72C213.26 303.44 212.82 304.04 212.26 304.22C211.88 304.34 211.48 304.28 211.1 304.18C210.6 304.06 210.16 304.04 209.38 304.26ZM208.24 303.68L208.04 304.26C207.26 304.04 206.82 304.06 206.32 304.18C205.94 304.28 205.54 304.34 205.16 304.22C204.6 304.04 204.16 303.44 204.38 302.72C204.62 302.08 205.32 301.84 205.88 302C206.26 302.14 206.56 302.44 206.82 302.74C207.14 303.12 207.48 303.4 208.24 303.68ZM208.9 304.8L209.38 304.46C209.88 305.08 210.26 305.28 210.7 305.5C211.08 305.64 211.46 305.84 211.7 306.2C212.02 306.64 212.04 307.38 211.48 307.82C210.88 308.24 210.16 308.04 209.84 307.54C209.58 307.2 209.54 306.8 209.48 306.4C209.46 305.9 209.34 305.48 208.9 304.8ZM208.04 304.46L208.52 304.8C208.08 305.48 207.96 305.9 207.92 306.4C207.88 306.8 207.84 307.2 207.58 307.54C207.26 308.04 206.54 308.24 205.94 307.82C205.38 307.38 205.4 306.64 205.72 306.2C205.96 305.84 206.34 305.64 206.72 305.5C207.14 305.28 207.54 305.08 208.04 304.46Z" fill="#D5E4F6"/>
<path d="M18.02 297.48H17.4C17.36 296.7 17.16 296.3 16.9 295.86C16.7 295.54 16.54 295.14 16.54 294.74C16.54 294.06 17 293.56 17.7 293.56C18.42 293.56 18.88 294.06 18.88 294.74C18.88 295.14 18.72 295.54 18.52 295.86C18.26 296.3 18.06 296.7 18.02 297.48ZM18.38 298.26L18.18 297.68C18.94 297.4 19.26 297.12 19.6 296.74C19.86 296.44 20.16 296.14 20.54 296C21.08 295.84 21.8 296.08 22.04 296.72C22.26 297.44 21.82 298.04 21.26 298.22C20.88 298.34 20.48 298.28 20.1 298.18C19.6 298.06 19.16 298.04 18.38 298.26ZM17.24 297.68L17.04 298.26C16.26 298.04 15.82 298.06 15.32 298.18C14.94 298.28 14.54 298.34 14.16 298.22C13.6 298.04 13.16 297.44 13.38 296.72C13.62 296.08 14.32 295.84 14.88 296C15.26 296.14 15.56 296.44 15.82 296.74C16.14 297.12 16.48 297.4 17.24 297.68ZM17.9 298.8L18.38 298.46C18.88 299.08 19.26 299.28 19.7 299.5C20.08 299.64 20.46 299.84 20.7 300.2C21.02 300.64 21.04 301.38 20.48 301.82C19.88 302.24 19.16 302.04 18.84 301.54C18.58 301.2 18.54 300.8 18.48 300.4C18.46 299.9 18.34 299.48 17.9 298.8ZM17.04 298.46L17.52 298.8C17.08 299.48 16.96 299.9 16.92 300.4C16.88 300.8 16.84 301.2 16.58 301.54C16.26 302.04 15.54 302.24 14.94 301.82C14.38 301.38 14.4 300.64 14.72 300.2C14.96 299.84 15.34 299.64 15.72 299.5C16.14 299.28 16.54 299.08 17.04 298.46Z" fill="#F1F4BC"/>
<defs>
<filter id="filter0_f_275_1359" x="0.9" y="0.9" width="260.556" height="268.795" filterUnits="userSpaceOnUse" color-interpolation-filters="sRGB">
<feFlood flood-opacity="0" result="BackgroundImageFix"/>
<feBlend mode="normal" in="SourceGraphic" in2="BackgroundImageFix" result="shape"/>
<feGaussianBlur stdDeviation="0.05" result="effect1_foregroundBlur_275_1359"/>
</filter>
<linearGradient id="paint0_linear_275_1359" x1="185.837" y1="170.575" x2="256.337" y2="309.575" gradientUnits="userSpaceOnUse">
<stop stop-color="#81E2F2"/>
<stop offset="1" stop-color="#A8B03E"/>
</linearGradient>
</defs>
</svg>
