<svg width="165" height="42" viewBox="0 0 165 42" fill="none" xmlns="http://www.w3.org/2000/svg">
<g opacity="0.4">
<path d="M1 21C1 9.95431 9.95431 1 21 1H144C155.046 1 164 9.95431 164 21C164 32.0457 155.046 41 144 41H21C9.9543 41 1 32.0457 1 21Z" fill="#F9FAFA"/>
<path d="M21 1.5H144V0.5H21V1.5ZM144 40.5H21V41.5H144V40.5ZM21 40.5C10.2304 40.5 1.5 31.7696 1.5 21H0.5C0.5 32.3218 9.67816 41.5 21 41.5V40.5ZM163.5 21C163.5 31.7696 154.77 40.5 144 40.5V41.5C155.322 41.5 164.5 32.3218 164.5 21H163.5ZM144 1.5C154.77 1.5 163.5 10.2304 163.5 21H164.5C164.5 9.67816 155.322 0.5 144 0.5V1.5ZM21 0.5C9.67816 0.5 0.5 9.67816 0.5 21H1.5C1.5 10.2304 10.2304 1.5 21 1.5V0.5Z" fill="#D9D9D9"/>
</g>
</svg>
