<svg width="30" height="29" viewBox="0 0 30 29" fill="none" xmlns="http://www.w3.org/2000/svg">
<path d="M16.064 13.136H14.08C13.952 10.64 13.312 9.36 12.48 7.952C11.84 6.928 11.328 5.648 11.328 4.368C11.328 2.192 12.8 0.591999 15.04 0.591999C17.344 0.591999 18.816 2.192 18.816 4.368C18.816 5.648 18.304 6.928 17.664 7.952C16.832 9.36 16.192 10.64 16.064 13.136ZM17.216 15.632L16.576 13.776C19.008 12.88 20.032 11.984 21.12 10.768C21.952 9.808 22.912 8.848 24.128 8.4C25.856 7.888 28.16 8.656 28.928 10.704C29.632 13.008 28.224 14.928 26.432 15.504C25.216 15.888 23.936 15.696 22.72 15.376C21.12 14.992 19.712 14.928 17.216 15.632ZM13.568 13.776L12.928 15.632C10.432 14.928 9.024 14.992 7.424 15.376C6.208 15.696 4.928 15.888 3.712 15.504C1.92 14.928 0.512 13.008 1.216 10.704C1.984 8.656 4.224 7.888 6.016 8.4C7.232 8.848 8.192 9.808 9.024 10.768C10.048 11.984 11.136 12.88 13.568 13.776ZM15.68 17.36L17.216 16.272C18.816 18.256 20.032 18.896 21.44 19.6C22.656 20.048 23.872 20.688 24.64 21.84C25.664 23.248 25.728 25.616 23.936 27.024C22.016 28.368 19.712 27.728 18.688 26.128C17.856 25.04 17.728 23.76 17.536 22.48C17.472 20.88 17.088 19.536 15.68 17.36ZM12.928 16.272L14.464 17.36C13.056 19.536 12.672 20.88 12.544 22.48C12.416 23.76 12.288 25.04 11.456 26.128C10.432 27.728 8.128 28.368 6.208 27.024C4.416 25.616 4.48 23.248 5.504 21.84C6.272 20.688 7.488 20.048 8.704 19.6C10.048 18.896 11.328 18.256 12.928 16.272Z" fill="white"/>
</svg>
