<svg width="38" height="38" viewBox="0 0 38 38" fill="none" xmlns="http://www.w3.org/2000/svg">
<path d="M20.2869 18.2311L18.4624 17.4517C19.3253 15.1061 19.2396 13.6776 19.0277 12.0559C18.8415 10.8628 18.8735 9.48458 19.3764 8.30749C20.2312 6.30646 22.2135 5.4134 24.2734 6.29342C26.3921 7.19859 27.1172 9.24824 26.2623 11.2493C25.7594 12.4264 24.7857 13.4023 23.7949 14.0925C22.4766 15.0605 21.3852 15.9861 20.2869 18.2311ZM20.3657 20.979L20.5063 19.0208C23.0948 19.1523 24.3884 18.7306 25.8667 18.0399C27.0089 17.4839 28.2689 16.9782 29.5631 17.044C31.3534 17.252 33.1704 18.8634 33.072 21.0485C32.8143 23.4438 30.7652 24.6563 28.891 24.482C27.6219 24.3574 26.5202 23.6779 25.5277 22.9059C24.2072 21.9242 22.9376 21.3122 20.3657 20.979ZM17.7402 17.8391L16.4225 19.2944C14.4037 17.6664 13.0838 17.1721 11.4616 16.8967C10.2176 16.7132 8.96513 16.3869 7.99776 15.556C6.57613 14.3223 6.03564 12.0036 7.5882 10.1614C9.09904 8.57978 11.4607 8.75355 12.9074 9.9284C13.8497 10.8181 14.3553 12.0781 14.7433 13.2877C15.2072 14.8083 15.8557 16.0597 17.7402 17.8391ZM18.2743 21.9646L20.1143 21.5676C20.8062 24.0206 21.673 25.0869 22.6912 26.2874C23.6334 27.1771 24.5002 28.2434 24.7539 29.6045C25.1424 31.3016 24.2709 33.5043 22.0698 34.0951C19.7762 34.5767 17.9089 33.083 17.5958 31.2094C17.2581 29.882 17.6433 28.6546 17.9696 27.4021C18.5393 25.9056 18.7142 24.5188 18.2743 21.9646ZM16.171 19.883L17.1561 21.4869C15.0064 22.9348 14.1253 24.0199 13.379 25.4409C12.7584 26.5677 12.1378 27.6945 10.9453 28.3682C9.37504 29.4372 7.00486 29.1206 5.76725 27.1304C4.67249 25.1316 5.66165 22.9791 7.15647 22.0866C8.3153 21.329 9.68497 21.2182 10.9792 21.2839C12.4917 21.1645 13.9202 21.0788 16.171 19.883Z" fill="#F1F4BC"/>
</svg>
